solid ASCII
  facet normal -0.000000e+00 -9.659258e-01 -2.588191e-01
    outer loop
      vertex   5.000000e+00 5.196152e+00 3.000000e+00
      vertex   0.000000e+00 5.196152e+00 3.000000e+00
      vertex   5.000000e+00 6.000000e+00 0.000000e+00
    endloop
  endfacet
  facet normal -0.000000e+00 -9.659258e-01 -2.588191e-01
    outer loop
      vertex   5.000000e+00 6.000000e+00 0.000000e+00
      vertex   0.000000e+00 5.196152e+00 3.000000e+00
      vertex   0.000000e+00 6.000000e+00 0.000000e+00
    endloop
  endfacet
  facet normal 0.000000e+00 -9.659258e-01 2.588191e-01
    outer loop
      vertex   5.000000e+00 6.000000e+00 0.000000e+00
      vertex   0.000000e+00 6.000000e+00 0.000000e+00
      vertex   5.000000e+00 5.196152e+00 -3.000000e+00
    endloop
  endfacet
  facet normal 0.000000e+00 -9.659258e-01 2.588191e-01
    outer loop
      vertex   5.000000e+00 5.196152e+00 -3.000000e+00
      vertex   0.000000e+00 6.000000e+00 0.000000e+00
      vertex   0.000000e+00 5.196152e+00 -3.000000e+00
    endloop
  endfacet
  facet normal 0.000000e+00 -7.071068e-01 7.071068e-01
    outer loop
      vertex   5.000000e+00 5.196152e+00 -3.000000e+00
      vertex   0.000000e+00 5.196152e+00 -3.000000e+00
      vertex   5.000000e+00 3.000000e+00 -5.196152e+00
    endloop
  endfacet
  facet normal 0.000000e+00 -7.071068e-01 7.071068e-01
    outer loop
      vertex   5.000000e+00 3.000000e+00 -5.196152e+00
      vertex   0.000000e+00 5.196152e+00 -3.000000e+00
      vertex   0.000000e+00 3.000000e+00 -5.196152e+00
    endloop
  endfacet
  facet normal 0.000000e+00 -2.588191e-01 9.659258e-01
    outer loop
      vertex   5.000000e+00 3.000000e+00 -5.196152e+00
      vertex   0.000000e+00 3.000000e+00 -5.196152e+00
      vertex   5.000000e+00 0.000000e+00 -6.000000e+00
    endloop
  endfacet
  facet normal 0.000000e+00 -2.588191e-01 9.659258e-01
    outer loop
      vertex   5.000000e+00 0.000000e+00 -6.000000e+00
      vertex   0.000000e+00 3.000000e+00 -5.196152e+00
      vertex   0.000000e+00 0.000000e+00 -6.000000e+00
    endloop
  endfacet
  facet normal 0.000000e+00 2.588191e-01 9.659258e-01
    outer loop
      vertex   5.000000e+00 0.000000e+00 -6.000000e+00
      vertex   0.000000e+00 0.000000e+00 -6.000000e+00
      vertex   5.000000e+00 -3.000000e+00 -5.196152e+00
    endloop
  endfacet
  facet normal 0.000000e+00 2.588191e-01 9.659258e-01
    outer loop
      vertex   5.000000e+00 -3.000000e+00 -5.196152e+00
      vertex   0.000000e+00 0.000000e+00 -6.000000e+00
      vertex   0.000000e+00 -3.000000e+00 -5.196152e+00
    endloop
  endfacet
  facet normal 0.000000e+00 7.071068e-01 7.071068e-01
    outer loop
      vertex   5.000000e+00 -3.000000e+00 -5.196152e+00
      vertex   0.000000e+00 -3.000000e+00 -5.196152e+00
      vertex   5.000000e+00 -5.196152e+00 -3.000000e+00
    endloop
  endfacet
  facet normal 0.000000e+00 7.071068e-01 7.071068e-01
    outer loop
      vertex   5.000000e+00 -5.196152e+00 -3.000000e+00
      vertex   0.000000e+00 -3.000000e+00 -5.196152e+00
      vertex   0.000000e+00 -5.196152e+00 -3.000000e+00
    endloop
  endfacet
  facet normal 0.000000e+00 9.659258e-01 2.588191e-01
    outer loop
      vertex   5.000000e+00 -5.196152e+00 -3.000000e+00
      vertex   0.000000e+00 -5.196152e+00 -3.000000e+00
      vertex   5.000000e+00 -6.000000e+00 0.000000e+00
    endloop
  endfacet
  facet normal 0.000000e+00 9.659258e-01 2.588191e-01
    outer loop
      vertex   5.000000e+00 -6.000000e+00 0.000000e+00
      vertex   0.000000e+00 -5.196152e+00 -3.000000e+00
      vertex   0.000000e+00 -6.000000e+00 0.000000e+00
    endloop
  endfacet
  facet normal 0.000000e+00 9.659258e-01 -2.588191e-01
    outer loop
      vertex   5.000000e+00 -6.000000e+00 0.000000e+00
      vertex   0.000000e+00 -6.000000e+00 0.000000e+00
      vertex   5.000000e+00 -5.196152e+00 3.000000e+00
    endloop
  endfacet
  facet normal 0.000000e+00 9.659258e-01 -2.588191e-01
    outer loop
      vertex   5.000000e+00 -5.196152e+00 3.000000e+00
      vertex   0.000000e+00 -6.000000e+00 0.000000e+00
      vertex   0.000000e+00 -5.196152e+00 3.000000e+00
    endloop
  endfacet
  facet normal 0.000000e+00 7.071068e-01 -7.071068e-01
    outer loop
      vertex   5.000000e+00 -5.196152e+00 3.000000e+00
      vertex   0.000000e+00 -5.196152e+00 3.000000e+00
      vertex   5.000000e+00 -3.000000e+00 5.196152e+00
    endloop
  endfacet
  facet normal 0.000000e+00 7.071068e-01 -7.071068e-01
    outer loop
      vertex   5.000000e+00 -3.000000e+00 5.196152e+00
      vertex   0.000000e+00 -5.196152e+00 3.000000e+00
      vertex   0.000000e+00 -3.000000e+00 5.196152e+00
    endloop
  endfacet
  facet normal 0.000000e+00 2.588191e-01 -9.659258e-01
    outer loop
      vertex   5.000000e+00 -3.000000e+00 5.196152e+00
      vertex   0.000000e+00 -3.000000e+00 5.196152e+00
      vertex   5.000000e+00 0.000000e+00 6.000000e+00
    endloop
  endfacet
  facet normal 0.000000e+00 2.588191e-01 -9.659258e-01
    outer loop
      vertex   5.000000e+00 0.000000e+00 6.000000e+00
      vertex   0.000000e+00 -3.000000e+00 5.196152e+00
      vertex   0.000000e+00 0.000000e+00 6.000000e+00
    endloop
  endfacet
  facet normal -0.000000e+00 -2.588191e-01 -9.659258e-01
    outer loop
      vertex   5.000000e+00 0.000000e+00 6.000000e+00
      vertex   0.000000e+00 0.000000e+00 6.000000e+00
      vertex   5.000000e+00 3.000000e+00 5.196152e+00
    endloop
  endfacet
  facet normal -0.000000e+00 -2.588191e-01 -9.659258e-01
    outer loop
      vertex   5.000000e+00 3.000000e+00 5.196152e+00
      vertex   0.000000e+00 0.000000e+00 6.000000e+00
      vertex   0.000000e+00 3.000000e+00 5.196152e+00
    endloop
  endfacet
  facet normal -0.000000e+00 -7.071068e-01 -7.071068e-01
    outer loop
      vertex   5.000000e+00 3.000000e+00 5.196152e+00
      vertex   0.000000e+00 3.000000e+00 5.196152e+00
      vertex   5.000000e+00 5.196152e+00 3.000000e+00
    endloop
  endfacet
  facet normal -0.000000e+00 -7.071068e-01 -7.071068e-01
    outer loop
      vertex   5.000000e+00 5.196152e+00 3.000000e+00
      vertex   0.000000e+00 3.000000e+00 5.196152e+00
      vertex   0.000000e+00 5.196152e+00 3.000000e+00
    endloop
  endfacet
  facet normal 0.000000e+00 9.781476e-01 -2.079118e-01
    outer loop
      vertex   5.000000e+00 9.135454e+00 -4.067366e+00
      vertex   0.000000e+00 1.000000e+01 0.000000e+00
      vertex   5.000000e+00 1.000000e+01 0.000000e+00
    endloop
  endfacet
  facet normal 0.000000e+00 9.781476e-01 2.079118e-01
    outer loop
      vertex   5.000000e+00 1.000000e+01 0.000000e+00
      vertex   0.000000e+00 1.000000e+01 0.000000e+00
      vertex   0.000000e+00 9.135454e+00 4.067366e+00
    endloop
  endfacet
  facet normal 0.000000e+00 9.781476e-01 2.079118e-01
    outer loop
      vertex   5.000000e+00 1.000000e+01 0.000000e+00
      vertex   0.000000e+00 9.135454e+00 4.067366e+00
      vertex   5.000000e+00 9.135454e+00 4.067366e+00
    endloop
  endfacet
  facet normal 0.000000e+00 8.090170e-01 5.877852e-01
    outer loop
      vertex   5.000000e+00 9.135454e+00 4.067366e+00
      vertex   0.000000e+00 9.135454e+00 4.067366e+00
      vertex   0.000000e+00 6.691306e+00 7.431448e+00
    endloop
  endfacet
  facet normal 0.000000e+00 8.090170e-01 5.877852e-01
    outer loop
      vertex   5.000000e+00 9.135454e+00 4.067366e+00
      vertex   0.000000e+00 6.691306e+00 7.431448e+00
      vertex   5.000000e+00 6.691306e+00 7.431448e+00
    endloop
  endfacet
  facet normal 0.000000e+00 5.000001e-01 8.660254e-01
    outer loop
      vertex   5.000000e+00 6.691306e+00 7.431448e+00
      vertex   0.000000e+00 6.691306e+00 7.431448e+00
      vertex   0.000000e+00 3.090170e+00 9.510565e+00
    endloop
  endfacet
  facet normal 0.000000e+00 5.000001e-01 8.660254e-01
    outer loop
      vertex   5.000000e+00 6.691306e+00 7.431448e+00
      vertex   0.000000e+00 3.090170e+00 9.510565e+00
      vertex   5.000000e+00 3.090170e+00 9.510565e+00
    endloop
  endfacet
  facet normal 0.000000e+00 1.045285e-01 9.945219e-01
    outer loop
      vertex   5.000000e+00 3.090170e+00 9.510565e+00
      vertex   0.000000e+00 3.090170e+00 9.510565e+00
      vertex   0.000000e+00 -1.045285e+00 9.945219e+00
    endloop
  endfacet
  facet normal 0.000000e+00 1.045285e-01 9.945219e-01
    outer loop
      vertex   5.000000e+00 3.090170e+00 9.510565e+00
      vertex   0.000000e+00 -1.045285e+00 9.945219e+00
      vertex   5.000000e+00 -1.045285e+00 9.945219e+00
    endloop
  endfacet
  facet normal 0.000000e+00 -3.090171e-01 9.510565e-01
    outer loop
      vertex   5.000000e+00 -1.045285e+00 9.945219e+00
      vertex   0.000000e+00 -1.045285e+00 9.945219e+00
      vertex   0.000000e+00 -5.000000e+00 8.660254e+00
    endloop
  endfacet
  facet normal 0.000000e+00 -3.090171e-01 9.510565e-01
    outer loop
      vertex   5.000000e+00 -1.045285e+00 9.945219e+00
      vertex   0.000000e+00 -5.000000e+00 8.660254e+00
      vertex   5.000000e+00 -5.000000e+00 8.660254e+00
    endloop
  endfacet
  facet normal 0.000000e+00 -6.691306e-01 7.431448e-01
    outer loop
      vertex   5.000000e+00 -5.000000e+00 8.660254e+00
      vertex   0.000000e+00 -5.000000e+00 8.660254e+00
      vertex   0.000000e+00 -8.090170e+00 5.877852e+00
    endloop
  endfacet
  facet normal 0.000000e+00 -6.691306e-01 7.431448e-01
    outer loop
      vertex   5.000000e+00 -5.000000e+00 8.660254e+00
      vertex   0.000000e+00 -8.090170e+00 5.877852e+00
      vertex   5.000000e+00 -8.090170e+00 5.877852e+00
    endloop
  endfacet
  facet normal 0.000000e+00 -9.135454e-01 4.067367e-01
    outer loop
      vertex   5.000000e+00 -8.090170e+00 5.877852e+00
      vertex   0.000000e+00 -8.090170e+00 5.877852e+00
      vertex   0.000000e+00 -9.781476e+00 2.079117e+00
    endloop
  endfacet
  facet normal 0.000000e+00 -9.135454e-01 4.067367e-01
    outer loop
      vertex   5.000000e+00 -8.090170e+00 5.877852e+00
      vertex   0.000000e+00 -9.781476e+00 2.079117e+00
      vertex   5.000000e+00 -9.781476e+00 2.079117e+00
    endloop
  endfacet
  facet normal -0.000000e+00 -1.000000e+00 0.000000e+00
    outer loop
      vertex   5.000000e+00 -9.781476e+00 2.079117e+00
      vertex   0.000000e+00 -9.781476e+00 2.079117e+00
      vertex   0.000000e+00 -9.781476e+00 -2.079117e+00
    endloop
  endfacet
  facet normal 0.000000e+00 -1.000000e+00 -0.000000e+00
    outer loop
      vertex   5.000000e+00 -9.781476e+00 2.079117e+00
      vertex   0.000000e+00 -9.781476e+00 -2.079117e+00
      vertex   5.000000e+00 -9.781476e+00 -2.079117e+00
    endloop
  endfacet
  facet normal -0.000000e+00 -9.135454e-01 -4.067367e-01
    outer loop
      vertex   5.000000e+00 -9.781476e+00 -2.079117e+00
      vertex   0.000000e+00 -9.781476e+00 -2.079117e+00
      vertex   0.000000e+00 -8.090170e+00 -5.877852e+00
    endloop
  endfacet
  facet normal 0.000000e+00 -9.135454e-01 -4.067367e-01
    outer loop
      vertex   5.000000e+00 -9.781476e+00 -2.079117e+00
      vertex   0.000000e+00 -8.090170e+00 -5.877852e+00
      vertex   5.000000e+00 -8.090170e+00 -5.877852e+00
    endloop
  endfacet
  facet normal -0.000000e+00 -6.691306e-01 -7.431448e-01
    outer loop
      vertex   5.000000e+00 -8.090170e+00 -5.877852e+00
      vertex   0.000000e+00 -8.090170e+00 -5.877852e+00
      vertex   0.000000e+00 -5.000000e+00 -8.660254e+00
    endloop
  endfacet
  facet normal 0.000000e+00 -6.691306e-01 -7.431448e-01
    outer loop
      vertex   5.000000e+00 -8.090170e+00 -5.877852e+00
      vertex   0.000000e+00 -5.000000e+00 -8.660254e+00
      vertex   5.000000e+00 -5.000000e+00 -8.660254e+00
    endloop
  endfacet
  facet normal -0.000000e+00 -3.090171e-01 -9.510565e-01
    outer loop
      vertex   5.000000e+00 -5.000000e+00 -8.660254e+00
      vertex   0.000000e+00 -5.000000e+00 -8.660254e+00
      vertex   0.000000e+00 -1.045285e+00 -9.945219e+00
    endloop
  endfacet
  facet normal 0.000000e+00 -3.090171e-01 -9.510565e-01
    outer loop
      vertex   5.000000e+00 -5.000000e+00 -8.660254e+00
      vertex   0.000000e+00 -1.045285e+00 -9.945219e+00
      vertex   5.000000e+00 -1.045285e+00 -9.945219e+00
    endloop
  endfacet
  facet normal 0.000000e+00 1.045285e-01 -9.945219e-01
    outer loop
      vertex   5.000000e+00 -1.045285e+00 -9.945219e+00
      vertex   0.000000e+00 -1.045285e+00 -9.945219e+00
      vertex   0.000000e+00 3.090170e+00 -9.510565e+00
    endloop
  endfacet
  facet normal 0.000000e+00 1.045285e-01 -9.945219e-01
    outer loop
      vertex   5.000000e+00 -1.045285e+00 -9.945219e+00
      vertex   0.000000e+00 3.090170e+00 -9.510565e+00
      vertex   5.000000e+00 3.090170e+00 -9.510565e+00
    endloop
  endfacet
  facet normal 0.000000e+00 5.000001e-01 -8.660254e-01
    outer loop
      vertex   5.000000e+00 3.090170e+00 -9.510565e+00
      vertex   0.000000e+00 3.090170e+00 -9.510565e+00
      vertex   0.000000e+00 6.691306e+00 -7.431448e+00
    endloop
  endfacet
  facet normal 0.000000e+00 5.000001e-01 -8.660254e-01
    outer loop
      vertex   5.000000e+00 3.090170e+00 -9.510565e+00
      vertex   0.000000e+00 6.691306e+00 -7.431448e+00
      vertex   5.000000e+00 6.691306e+00 -7.431448e+00
    endloop
  endfacet
  facet normal 0.000000e+00 8.090170e-01 -5.877852e-01
    outer loop
      vertex   5.000000e+00 6.691306e+00 -7.431448e+00
      vertex   0.000000e+00 6.691306e+00 -7.431448e+00
      vertex   0.000000e+00 9.135454e+00 -4.067366e+00
    endloop
  endfacet
  facet normal 0.000000e+00 8.090170e-01 -5.877852e-01
    outer loop
      vertex   5.000000e+00 6.691306e+00 -7.431448e+00
      vertex   0.000000e+00 9.135454e+00 -4.067366e+00
      vertex   5.000000e+00 9.135454e+00 -4.067366e+00
    endloop
  endfacet
  facet normal 0.000000e+00 9.781476e-01 -2.079118e-01
    outer loop
      vertex   5.000000e+00 9.135454e+00 -4.067366e+00
      vertex   0.000000e+00 9.135454e+00 -4.067366e+00
      vertex   0.000000e+00 1.000000e+01 0.000000e+00
    endloop
  endfacet
  facet normal 1.000000e+00 0.000000e+00 -0.000000e+00
    outer loop
      vertex   5.000000e+00 9.135454e+00 -4.067366e+00
      vertex   5.000000e+00 1.000000e+01 0.000000e+00
      vertex   5.000000e+00 6.000000e+00 0.000000e+00
    endloop
  endfacet
  facet normal 1.000000e+00 0.000000e+00 0.000000e+00
    outer loop
      vertex   5.000000e+00 6.000000e+00 0.000000e+00
      vertex   5.000000e+00 1.000000e+01 0.000000e+00
      vertex   5.000000e+00 9.135454e+00 4.067366e+00
    endloop
  endfacet
  facet normal 1.000000e+00 0.000000e+00 -0.000000e+00
    outer loop
      vertex   5.000000e+00 6.000000e+00 0.000000e+00
      vertex   5.000000e+00 9.135454e+00 4.067366e+00
      vertex   5.000000e+00 5.196152e+00 3.000000e+00
    endloop
  endfacet
  facet normal 1.000000e+00 0.000000e+00 0.000000e+00
    outer loop
      vertex   5.000000e+00 5.196152e+00 3.000000e+00
      vertex   5.000000e+00 9.135454e+00 4.067366e+00
      vertex   5.000000e+00 6.691306e+00 7.431448e+00
    endloop
  endfacet
  facet normal 1.000000e+00 0.000000e+00 -0.000000e+00
    outer loop
      vertex   5.000000e+00 5.196152e+00 3.000000e+00
      vertex   5.000000e+00 6.691306e+00 7.431448e+00
      vertex   5.000000e+00 3.000000e+00 5.196152e+00
    endloop
  endfacet
  facet normal 1.000000e+00 0.000000e+00 0.000000e+00
    outer loop
      vertex   5.000000e+00 3.000000e+00 5.196152e+00
      vertex   5.000000e+00 6.691306e+00 7.431448e+00
      vertex   5.000000e+00 3.090170e+00 9.510565e+00
    endloop
  endfacet
  facet normal 1.000000e+00 0.000000e+00 -0.000000e+00
    outer loop
      vertex   5.000000e+00 3.000000e+00 5.196152e+00
      vertex   5.000000e+00 3.090170e+00 9.510565e+00
      vertex   5.000000e+00 0.000000e+00 6.000000e+00
    endloop
  endfacet
  facet normal 1.000000e+00 0.000000e+00 -0.000000e+00
    outer loop
      vertex   5.000000e+00 0.000000e+00 6.000000e+00
      vertex   5.000000e+00 3.090170e+00 9.510565e+00
      vertex   5.000000e+00 -1.045285e+00 9.945219e+00
    endloop
  endfacet
  facet normal 1.000000e+00 0.000000e+00 0.000000e+00
    outer loop
      vertex   5.000000e+00 0.000000e+00 6.000000e+00
      vertex   5.000000e+00 -1.045285e+00 9.945219e+00
      vertex   5.000000e+00 -3.000000e+00 5.196152e+00
    endloop
  endfacet
  facet normal 1.000000e+00 0.000000e+00 -0.000000e+00
    outer loop
      vertex   5.000000e+00 -3.000000e+00 5.196152e+00
      vertex   5.000000e+00 -1.045285e+00 9.945219e+00
      vertex   5.000000e+00 -5.000000e+00 8.660254e+00
    endloop
  endfacet
  facet normal 1.000000e+00 0.000000e+00 0.000000e+00
    outer loop
      vertex   5.000000e+00 -3.000000e+00 5.196152e+00
      vertex   5.000000e+00 -5.000000e+00 8.660254e+00
      vertex   5.000000e+00 -8.090170e+00 5.877852e+00
    endloop
  endfacet
  facet normal 1.000000e+00 0.000000e+00 0.000000e+00
    outer loop
      vertex   5.000000e+00 -3.000000e+00 5.196152e+00
      vertex   5.000000e+00 -8.090170e+00 5.877852e+00
      vertex   5.000000e+00 -5.196152e+00 3.000000e+00
    endloop
  endfacet
  facet normal 1.000000e+00 0.000000e+00 0.000000e+00
    outer loop
      vertex   5.000000e+00 -5.196152e+00 3.000000e+00
      vertex   5.000000e+00 -8.090170e+00 5.877852e+00
      vertex   5.000000e+00 -9.781476e+00 2.079117e+00
    endloop
  endfacet
  facet normal 1.000000e+00 0.000000e+00 0.000000e+00
    outer loop
      vertex   5.000000e+00 -5.196152e+00 3.000000e+00
      vertex   5.000000e+00 -9.781476e+00 2.079117e+00
      vertex   5.000000e+00 -6.000000e+00 0.000000e+00
    endloop
  endfacet
  facet normal 1.000000e+00 0.000000e+00 0.000000e+00
    outer loop
      vertex   5.000000e+00 -6.000000e+00 0.000000e+00
      vertex   5.000000e+00 -9.781476e+00 2.079117e+00
      vertex   5.000000e+00 -9.781476e+00 -2.079117e+00
    endloop
  endfacet
  facet normal 1.000000e+00 0.000000e+00 0.000000e+00
    outer loop
      vertex   5.000000e+00 -6.000000e+00 0.000000e+00
      vertex   5.000000e+00 -9.781476e+00 -2.079117e+00
      vertex   5.000000e+00 -5.196152e+00 -3.000000e+00
    endloop
  endfacet
  facet normal 1.000000e+00 0.000000e+00 0.000000e+00
    outer loop
      vertex   5.000000e+00 -5.196152e+00 -3.000000e+00
      vertex   5.000000e+00 -9.781476e+00 -2.079117e+00
      vertex   5.000000e+00 -8.090170e+00 -5.877852e+00
    endloop
  endfacet
  facet normal 1.000000e+00 0.000000e+00 0.000000e+00
    outer loop
      vertex   5.000000e+00 -5.196152e+00 -3.000000e+00
      vertex   5.000000e+00 -8.090170e+00 -5.877852e+00
      vertex   5.000000e+00 -3.000000e+00 -5.196152e+00
    endloop
  endfacet
  facet normal 1.000000e+00 0.000000e+00 0.000000e+00
    outer loop
      vertex   5.000000e+00 -3.000000e+00 -5.196152e+00
      vertex   5.000000e+00 -8.090170e+00 -5.877852e+00
      vertex   5.000000e+00 -5.000000e+00 -8.660254e+00
    endloop
  endfacet
  facet normal 1.000000e+00 0.000000e+00 0.000000e+00
    outer loop
      vertex   5.000000e+00 -3.000000e+00 -5.196152e+00
      vertex   5.000000e+00 -5.000000e+00 -8.660254e+00
      vertex   5.000000e+00 -1.045285e+00 -9.945219e+00
    endloop
  endfacet
  facet normal 1.000000e+00 0.000000e+00 0.000000e+00
    outer loop
      vertex   5.000000e+00 -3.000000e+00 -5.196152e+00
      vertex   5.000000e+00 -1.045285e+00 -9.945219e+00
      vertex   5.000000e+00 0.000000e+00 -6.000000e+00
    endloop
  endfacet
  facet normal 1.000000e+00 0.000000e+00 0.000000e+00
    outer loop
      vertex   5.000000e+00 0.000000e+00 -6.000000e+00
      vertex   5.000000e+00 -1.045285e+00 -9.945219e+00
      vertex   5.000000e+00 3.090170e+00 -9.510565e+00
    endloop
  endfacet
  facet normal 1.000000e+00 -0.000000e+00 0.000000e+00
    outer loop
      vertex   5.000000e+00 0.000000e+00 -6.000000e+00
      vertex   5.000000e+00 3.090170e+00 -9.510565e+00
      vertex   5.000000e+00 3.000000e+00 -5.196152e+00
    endloop
  endfacet
  facet normal 1.000000e+00 0.000000e+00 0.000000e+00
    outer loop
      vertex   5.000000e+00 3.000000e+00 -5.196152e+00
      vertex   5.000000e+00 3.090170e+00 -9.510565e+00
      vertex   5.000000e+00 6.691306e+00 -7.431448e+00
    endloop
  endfacet
  facet normal 1.000000e+00 -0.000000e+00 0.000000e+00
    outer loop
      vertex   5.000000e+00 3.000000e+00 -5.196152e+00
      vertex   5.000000e+00 6.691306e+00 -7.431448e+00
      vertex   5.000000e+00 5.196152e+00 -3.000000e+00
    endloop
  endfacet
  facet normal 1.000000e+00 0.000000e+00 0.000000e+00
    outer loop
      vertex   5.000000e+00 5.196152e+00 -3.000000e+00
      vertex   5.000000e+00 6.691306e+00 -7.431448e+00
      vertex   5.000000e+00 9.135454e+00 -4.067366e+00
    endloop
  endfacet
  facet normal 1.000000e+00 -0.000000e+00 0.000000e+00
    outer loop
      vertex   5.000000e+00 5.196152e+00 -3.000000e+00
      vertex   5.000000e+00 9.135454e+00 -4.067366e+00
      vertex   5.000000e+00 6.000000e+00 0.000000e+00
    endloop
  endfacet
  facet normal -1.000000e+00 0.000000e+00 -0.000000e+00
    outer loop
      vertex   0.000000e+00 9.135454e+00 4.067366e+00
      vertex   0.000000e+00 1.000000e+01 0.000000e+00
      vertex   0.000000e+00 6.000000e+00 0.000000e+00
    endloop
  endfacet
  facet normal -1.000000e+00 0.000000e+00 0.000000e+00
    outer loop
      vertex   0.000000e+00 6.000000e+00 0.000000e+00
      vertex   0.000000e+00 1.000000e+01 0.000000e+00
      vertex   0.000000e+00 9.135454e+00 -4.067366e+00
    endloop
  endfacet
  facet normal -1.000000e+00 0.000000e+00 -0.000000e+00
    outer loop
      vertex   0.000000e+00 6.000000e+00 0.000000e+00
      vertex   0.000000e+00 9.135454e+00 -4.067366e+00
      vertex   0.000000e+00 5.196152e+00 -3.000000e+00
    endloop
  endfacet
  facet normal -1.000000e+00 0.000000e+00 0.000000e+00
    outer loop
      vertex   0.000000e+00 5.196152e+00 -3.000000e+00
      vertex   0.000000e+00 9.135454e+00 -4.067366e+00
      vertex   0.000000e+00 6.691306e+00 -7.431448e+00
    endloop
  endfacet
  facet normal -1.000000e+00 0.000000e+00 -0.000000e+00
    outer loop
      vertex   0.000000e+00 5.196152e+00 -3.000000e+00
      vertex   0.000000e+00 6.691306e+00 -7.431448e+00
      vertex   0.000000e+00 3.000000e+00 -5.196152e+00
    endloop
  endfacet
  facet normal -1.000000e+00 0.000000e+00 0.000000e+00
    outer loop
      vertex   0.000000e+00 3.000000e+00 -5.196152e+00
      vertex   0.000000e+00 6.691306e+00 -7.431448e+00
      vertex   0.000000e+00 3.090170e+00 -9.510565e+00
    endloop
  endfacet
  facet normal -1.000000e+00 0.000000e+00 -0.000000e+00
    outer loop
      vertex   0.000000e+00 3.000000e+00 -5.196152e+00
      vertex   0.000000e+00 3.090170e+00 -9.510565e+00
      vertex   0.000000e+00 0.000000e+00 -6.000000e+00
    endloop
  endfacet
  facet normal -1.000000e+00 0.000000e+00 -0.000000e+00
    outer loop
      vertex   0.000000e+00 0.000000e+00 -6.000000e+00
      vertex   0.000000e+00 3.090170e+00 -9.510565e+00
      vertex   0.000000e+00 -1.045285e+00 -9.945219e+00
    endloop
  endfacet
  facet normal -1.000000e+00 -0.000000e+00 0.000000e+00
    outer loop
      vertex   0.000000e+00 0.000000e+00 -6.000000e+00
      vertex   0.000000e+00 -1.045285e+00 -9.945219e+00
      vertex   0.000000e+00 -3.000000e+00 -5.196152e+00
    endloop
  endfacet
  facet normal -1.000000e+00 0.000000e+00 -0.000000e+00
    outer loop
      vertex   0.000000e+00 -3.000000e+00 -5.196152e+00
      vertex   0.000000e+00 -1.045285e+00 -9.945219e+00
      vertex   0.000000e+00 -5.000000e+00 -8.660254e+00
    endloop
  endfacet
  facet normal -1.000000e+00 0.000000e+00 0.000000e+00
    outer loop
      vertex   0.000000e+00 -3.000000e+00 -5.196152e+00
      vertex   0.000000e+00 -5.000000e+00 -8.660254e+00
      vertex   0.000000e+00 -8.090170e+00 -5.877852e+00
    endloop
  endfacet
  facet normal -1.000000e+00 -0.000000e+00 0.000000e+00
    outer loop
      vertex   0.000000e+00 -3.000000e+00 -5.196152e+00
      vertex   0.000000e+00 -8.090170e+00 -5.877852e+00
      vertex   0.000000e+00 -5.196152e+00 -3.000000e+00
    endloop
  endfacet
  facet normal -1.000000e+00 -0.000000e+00 0.000000e+00
    outer loop
      vertex   0.000000e+00 -5.196152e+00 -3.000000e+00
      vertex   0.000000e+00 -8.090170e+00 -5.877852e+00
      vertex   0.000000e+00 -9.781476e+00 -2.079117e+00
    endloop
  endfacet
  facet normal -1.000000e+00 0.000000e+00 0.000000e+00
    outer loop
      vertex   0.000000e+00 -5.196152e+00 -3.000000e+00
      vertex   0.000000e+00 -9.781476e+00 -2.079117e+00
      vertex   0.000000e+00 -6.000000e+00 0.000000e+00
    endloop
  endfacet
  facet normal -1.000000e+00 -0.000000e+00 0.000000e+00
    outer loop
      vertex   0.000000e+00 -6.000000e+00 0.000000e+00
      vertex   0.000000e+00 -9.781476e+00 -2.079117e+00
      vertex   0.000000e+00 -9.781476e+00 2.079117e+00
    endloop
  endfacet
  facet normal -1.000000e+00 0.000000e+00 0.000000e+00
    outer loop
      vertex   0.000000e+00 -6.000000e+00 0.000000e+00
      vertex   0.000000e+00 -9.781476e+00 2.079117e+00
      vertex   0.000000e+00 -5.196152e+00 3.000000e+00
    endloop
  endfacet
  facet normal -1.000000e+00 -0.000000e+00 0.000000e+00
    outer loop
      vertex   0.000000e+00 -5.196152e+00 3.000000e+00
      vertex   0.000000e+00 -9.781476e+00 2.079117e+00
      vertex   0.000000e+00 -8.090170e+00 5.877852e+00
    endloop
  endfacet
  facet normal -1.000000e+00 0.000000e+00 0.000000e+00
    outer loop
      vertex   0.000000e+00 -5.196152e+00 3.000000e+00
      vertex   0.000000e+00 -8.090170e+00 5.877852e+00
      vertex   0.000000e+00 -3.000000e+00 5.196152e+00
    endloop
  endfacet
  facet normal -1.000000e+00 0.000000e+00 0.000000e+00
    outer loop
      vertex   0.000000e+00 -3.000000e+00 5.196152e+00
      vertex   0.000000e+00 -8.090170e+00 5.877852e+00
      vertex   0.000000e+00 -5.000000e+00 8.660254e+00
    endloop
  endfacet
  facet normal -1.000000e+00 0.000000e+00 0.000000e+00
    outer loop
      vertex   0.000000e+00 -3.000000e+00 5.196152e+00
      vertex   0.000000e+00 -5.000000e+00 8.660254e+00
      vertex   0.000000e+00 -1.045285e+00 9.945219e+00
    endloop
  endfacet
  facet normal -1.000000e+00 0.000000e+00 0.000000e+00
    outer loop
      vertex   0.000000e+00 -3.000000e+00 5.196152e+00
      vertex   0.000000e+00 -1.045285e+00 9.945219e+00
      vertex   0.000000e+00 0.000000e+00 6.000000e+00
    endloop
  endfacet
  facet normal -1.000000e+00 0.000000e+00 0.000000e+00
    outer loop
      vertex   0.000000e+00 0.000000e+00 6.000000e+00
      vertex   0.000000e+00 -1.045285e+00 9.945219e+00
      vertex   0.000000e+00 3.090170e+00 9.510565e+00
    endloop
  endfacet
  facet normal -1.000000e+00 0.000000e+00 0.000000e+00
    outer loop
      vertex   0.000000e+00 0.000000e+00 6.000000e+00
      vertex   0.000000e+00 3.090170e+00 9.510565e+00
      vertex   0.000000e+00 3.000000e+00 5.196152e+00
    endloop
  endfacet
  facet normal -1.000000e+00 0.000000e+00 0.000000e+00
    outer loop
      vertex   0.000000e+00 3.000000e+00 5.196152e+00
      vertex   0.000000e+00 3.090170e+00 9.510565e+00
      vertex   0.000000e+00 6.691306e+00 7.431448e+00
    endloop
  endfacet
  facet normal -1.000000e+00 0.000000e+00 0.000000e+00
    outer loop
      vertex   0.000000e+00 3.000000e+00 5.196152e+00
      vertex   0.000000e+00 6.691306e+00 7.431448e+00
      vertex   0.000000e+00 5.196152e+00 3.000000e+00
    endloop
  endfacet
  facet normal -1.000000e+00 0.000000e+00 0.000000e+00
    outer loop
      vertex   0.000000e+00 5.196152e+00 3.000000e+00
      vertex   0.000000e+00 6.691306e+00 7.431448e+00
      vertex   0.000000e+00 9.135454e+00 4.067366e+00
    endloop
  endfacet
  facet normal -1.000000e+00 0.000000e+00 0.000000e+00
    outer loop
      vertex   0.000000e+00 5.196152e+00 3.000000e+00
      vertex   0.000000e+00 9.135454e+00 4.067366e+00
      vertex   0.000000e+00 6.000000e+00 0.000000e+00
    endloop
  endfacet
endsolid
